<svg xmlns="http://www.w3.org/2000/svg" xmlns:xlink="http://www.w3.org/1999/xlink" viewBox="0,0,256,256" width="48px" height="48px" fill-rule="nonzero"><g fill="#ffffff" fill-rule="nonzero" stroke="none" stroke-width="1" stroke-linecap="butt" stroke-linejoin="miter" stroke-miterlimit="10" stroke-dasharray="" stroke-dashoffset="0" font-family="none" font-weight="none" font-size="none" text-anchor="none" style="mix-blend-mode: normal"><path d="M64,256c-35.34622,0 -64,-28.65378 -64,-64v-128c0,-35.34622 28.65378,-64 64,-64h128c35.34622,0 64,28.65378 64,64v128c0,35.34622 -28.65378,64 -64,64z" id="shape"></path></g><g fill="none" fill-rule="nonzero" stroke="none" stroke-width="1" stroke-linecap="butt" stroke-linejoin="miter" stroke-miterlimit="10" stroke-dasharray="" stroke-dashoffset="0" font-family="none" font-weight="none" font-size="none" text-anchor="none" style="mix-blend-mode: normal"><g transform="scale(5.33333,5.33333)"><path d="M5.446,18.01h-4.898c-0.277,0 -0.502,0.167 -0.503,0.502l-0.045,12.007c-0.001,0.3 0.196,0.45 0.465,0.45c0.735,0 1.335,0 2.07,0c0.255,0 0.465,-0.125 0.465,-0.375c0,-1.111 0,-2.483 0,-3.594l2.126,0.009c1.399,-0.092 2.335,-0.742 2.725,-2.052c0.117,-0.393 0.14,-0.733 0.14,-1.137l0.11,-2.862c-0.102,-2.012 -1.152,-2.777 -2.655,-2.948zM4.995,23.465c0,0.294 -0.241,0.535 -0.534,0.535h-1.461v-3h1.461c0.293,0 0.534,0.24 0.534,0.535zM13.938,18h-3.423c-0.26,0 -0.483,0.08 -0.483,0.351c0,0.706 0,1.495 0,2.201c0.028,0.294 0.231,0.448 0.52,0.448h2.855c0.594,0 0.532,0.972 0,1h-1.567c-1.739,0 -2.84,1.562 -2.84,3.137c0,0.42 0.005,1.406 0,1.863c-0.008,0.651 -0.014,1.311 0.112,1.899c0.224,1.04 1.123,2.101 2.485,2.101h4.228c0.541,0 1.173,-0.474 1.173,-1.101v-8.274c0.028,-2.182 -1.056,-3.508 -3.06,-3.625zM14,27.55c0,0.248 -0.202,0.45 -0.448,0.45h-1.105c-0.246,0 -0.447,-0.202 -0.447,-0.45v-2.101c0,-0.247 0.201,-0.449 0.447,-0.449h1.105c0.246,0 0.448,0.202 0.448,0.449zM18,18.594v5.608c0.124,1.6 1.608,2.798 3.171,2.798h1.414c0.597,0 0.561,0.969 0,0.969h-3.095c-0.339,0 -0.462,0.177 -0.462,0.476v2.152c0,0.226 0.183,0.396 0.422,0.396h2.959c2.416,0 3.592,-1.159 3.591,-3.757v-8.84c0,-0.276 -0.175,-0.383 -0.342,-0.383h-2.302c-0.224,0 -0.355,0.243 -0.355,0.422v5.218c0,0.199 -0.111,0.316 -0.29,0.316h-1.301c-0.264,0 -0.409,-0.143 -0.409,-0.396v-5.058c-0.001,-0.297 -0.121,-0.515 -0.449,-0.515c-0.778,0 -1.442,0 -2.22,0c-0.265,0 -0.332,0.263 -0.332,0.594z" fill="#0d47a1"></path><path d="M27.038,20.569v-2.138c0,-0.237 0.194,-0.431 0.43,-0.431h0.532c1.368,-0.285 1.851,-0.62 2.688,-1.522c0.514,-0.557 0.966,-0.704 1.298,-0.113l0.014,1.635h1.569c0.238,0 0.431,0.194 0.431,0.431v2.138c0,0.236 -0.194,0.431 -0.431,0.431h-1.569v9.569c0,0.238 -0.194,0.431 -0.43,0.431h-2.14c-0.237,0 -0.43,-0.193 -0.43,-0.431v-9.569h-1.531c-0.235,0 -0.431,-0.194 -0.431,-0.431zM42.991,30.465c0,0.294 -0.244,0.535 -0.539,0.535h-1.91c-0.297,0 -0.54,-0.241 -0.54,-0.535v-6.623v-1.871c0,-1.284 -2.002,-1.284 -2.002,0v8.494c0,0.294 -0.242,0.535 -0.539,0.535h-1.921c-0.297,0 -0.54,-0.241 -0.54,-0.535v-11.928c0,-0.296 0.243,-0.537 0.54,-0.537h1.976c0.297,0 0.539,0.241 0.539,0.537v0.292c1.32,-1.266 3.302,-0.973 4.416,0.228c2.097,-2.405 5.69,-0.262 5.523,2.375c0,2.916 -0.026,6.093 -0.026,9.033c0,0.294 -0.244,0.535 -0.538,0.535h-1.891c-0.297,0 -0.539,-0.241 -0.539,-0.535c0,-2.786 0,-5.701 0,-8.44c0,-1.307 -2,-1.37 -2,0v8.44z" fill="#00adee"></path></g></g></svg>